<?xml version="1.0" standalone="no"?>
<!DOCTYPE svg PUBLIC "-//W3C//DTD SVG 20010904//EN"
 "http://www.w3.org/TR/2001/REC-SVG-20010904/DTD/svg10.dtd">
<svg version="1.0" xmlns="http://www.w3.org/2000/svg"
 width="1920.000000pt" height="1920.000000pt" viewBox="0 0 1920.000000 1920.000000"
 preserveAspectRatio="xMidYMid meet">
<metadata>
Created by potrace 1.11, written by Peter Selinger 2001-2013
</metadata>
<g transform="translate(0.000000,1920.000000) scale(0.100000,-0.100000)"
fill="#000000" stroke="none">
<path d="M16310 14750 c-52 -21 -104 -39 -116 -39 -11 -1 -24 -4 -28 -8 -3 -4
-12 -8 -19 -9 -32 -7 -60 -14 -77 -19 -38 -12 -276 -63 -325 -70 -29 -3 -67
-10 -110 -19 -11 -2 -51 -7 -90 -11 -38 -4 -79 -9 -90 -12 -11 -2 -40 -6 -65
-8 -25 -3 -65 -7 -90 -10 -61 -7 -161 -16 -322 -29 -96 -9 -283 -19 -533 -31
-49 -3 -99 -6 -109 -8 -25 -5 -111 -78 -160 -137 -36 -43 -186 -274 -186 -286
0 -32 -246 -274 -401 -396 -30 -23 -56 -45 -59 -49 -25 -31 -407 -290 -515
-349 -33 -18 -77 -45 -99 -59 -37 -24 -38 -27 -32 -68 3 -24 13 -55 22 -68 28
-43 48 -48 112 -30 31 10 65 19 75 21 9 2 27 6 40 10 12 3 33 7 47 10 14 3 33
7 42 10 9 3 27 7 40 9 13 3 46 9 73 14 28 6 64 12 80 15 17 3 40 7 51 10 29 6
77 13 149 22 33 3 69 8 79 10 100 18 605 26 766 12 78 -6 100 1 100 32 0 33
-59 97 -153 168 -108 81 -127 103 -127 149 0 38 22 63 77 92 30 15 120 45 130
43 2 -1 17 4 35 9 18 5 44 11 58 14 14 3 36 7 50 11 84 20 108 25 130 28 14 3
61 11 105 20 118 23 131 25 240 41 55 8 111 17 124 19 13 3 52 8 86 11 35 2
78 7 97 10 53 9 183 21 306 30 81 6 129 44 137 110 3 22 -52 103 -101 150 -55
52 -62 70 -50 121 9 39 99 127 186 183 36 22 70 44 75 48 12 10 80 47 155 86
307 159 330 173 330 203 0 19 -18 35 -38 33 -4 0 -50 -18 -102 -39z"/>
<path d="M2715 14701 c-7 -13 64 -148 100 -191 99 -114 132 -143 210 -181 45
-21 89 -39 98 -39 9 0 18 -4 21 -9 3 -4 21 -11 40 -14 19 -3 50 -12 68 -20 18
-8 58 -22 88 -31 30 -10 62 -20 70 -24 8 -3 17 -6 20 -7 13 -5 51 -19 110 -43
126 -51 230 -123 245 -171 8 -25 -15 -118 -46 -186 -13 -27 -24 -54 -25 -60
-1 -5 -3 -14 -4 -20 -5 -20 0 -42 14 -61 14 -18 30 -19 313 -20 492 -2 589
-11 855 -83 197 -53 325 -127 370 -214 17 -33 22 -62 24 -135 2 -82 5 -96 28
-127 50 -65 82 -80 176 -82 128 -3 398 -13 460 -18 111 -9 176 -14 220 -20 25
-3 65 -8 90 -11 25 -3 56 -7 70 -9 14 -3 43 -7 65 -10 35 -5 61 -10 166 -30
13 -3 62 -14 109 -25 47 -11 96 -22 110 -25 14 -3 32 -8 40 -12 31 -13 56 -13
80 -1 34 17 81 70 78 88 -2 8 -46 39 -98 70 -265 154 -678 462 -828 618 -68
71 -101 131 -151 282 -18 52 -36 103 -41 112 -6 10 -10 23 -10 29 0 17 -59 88
-83 101 -15 8 -145 12 -427 13 -223 1 -436 5 -475 8 -38 3 -108 8 -155 12 -47
3 -101 8 -120 10 -19 2 -57 7 -85 10 -27 3 -66 8 -85 10 -19 3 -55 7 -80 10
-25 3 -58 8 -75 12 -16 4 -34 7 -40 8 -75 9 -368 94 -452 131 -17 8 -36 14
-41 14 -6 0 -23 5 -39 12 -15 6 -32 12 -38 14 -5 1 -73 25 -150 54 -77 28
-144 53 -150 54 -5 2 -21 7 -35 13 -14 5 -92 33 -175 62 -82 29 -159 57 -170
61 -26 12 -237 80 -246 80 -4 0 -10 -4 -14 -9z"/>
<path d="M9766 13683 c-2 -2 -27 -5 -57 -8 -128 -9 -195 -16 -209 -20 -8 -3
-35 -7 -60 -10 -25 -3 -58 -8 -75 -11 -16 -3 -41 -8 -55 -9 -30 -4 -80 -14
-100 -20 -8 -3 -31 -7 -50 -10 -19 -3 -96 -21 -170 -41 -74 -19 -142 -36 -150
-38 -8 -1 -22 -5 -30 -8 -8 -3 -76 -24 -150 -47 -74 -23 -144 -46 -155 -51
-11 -5 -90 -37 -175 -70 -85 -34 -159 -65 -165 -68 -5 -4 -12 -7 -15 -8 -5 -1
-64 -27 -145 -65 -27 -12 -66 -33 -85 -44 -19 -12 -38 -23 -42 -24 -13 -2
-103 -46 -108 -52 -3 -3 -39 -23 -80 -45 -41 -21 -77 -42 -80 -45 -3 -3 -10
-8 -15 -10 -6 -2 -43 -24 -83 -49 -40 -25 -81 -49 -91 -55 -23 -13 -153 -98
-166 -108 -5 -4 -35 -25 -65 -47 -268 -193 -422 -339 -665 -629 -89 -107 -188
-184 -271 -211 -34 -11 -107 -15 -144 -6 -8 1 -33 6 -55 11 -97 19 -287 110
-553 263 -168 98 -263 129 -295 97 -15 -15 -15 -19 -1 -53 32 -78 129 -186
335 -372 160 -145 299 -288 314 -324 18 -41 11 -65 -19 -67 -71 -5 -185 3
-243 16 -37 9 -79 19 -93 21 -14 3 -52 13 -85 23 -33 11 -80 24 -104 31 -24 6
-55 16 -70 22 -14 6 -30 12 -36 13 -15 4 -280 96 -445 155 -80 28 -152 53
-160 55 -8 2 -42 13 -75 25 -33 11 -62 20 -65 20 -3 0 -26 4 -53 11 -178 42
-103 -87 178 -307 61 -47 120 -90 133 -96 12 -6 22 -15 22 -20 0 -4 7 -8 15
-8 8 0 15 -3 15 -7 0 -5 25 -24 55 -43 30 -19 55 -38 55 -42 0 -5 4 -8 9 -8 9
0 370 -246 381 -259 3 -3 28 -22 55 -41 28 -19 56 -40 63 -47 7 -7 17 -13 21
-13 18 0 197 -188 208 -218 10 -29 9 -35 -10 -52 -22 -21 -35 -24 -102 -22
-43 1 -120 9 -120 12 0 1 -13 4 -30 6 -16 3 -48 10 -70 16 -22 6 -44 12 -50
14 -44 9 -253 74 -295 91 -8 3 -21 7 -28 9 -12 2 -173 52 -202 62 -58 20 -150
28 -150 12 0 -58 175 -193 520 -400 129 -77 285 -183 323 -219 53 -48 59 -72
42 -148 -8 -38 -17 -81 -19 -98 -2 -16 -5 -30 -6 -30 -1 0 -3 -9 -4 -20 -2
-11 -9 -49 -16 -85 -6 -36 -14 -76 -16 -90 -2 -14 -7 -36 -10 -50 -3 -13 -8
-47 -10 -75 -3 -27 -9 -68 -13 -90 -5 -22 -9 -47 -9 -55 0 -8 -2 -40 -6 -70
-19 -168 -26 -289 -28 -500 0 -135 8 -333 17 -390 2 -14 6 -56 10 -93 3 -37 8
-76 10 -86 2 -10 6 -42 10 -72 4 -30 11 -73 16 -97 5 -23 12 -59 15 -80 3 -20
12 -64 20 -97 8 -33 17 -71 20 -85 3 -14 12 -48 20 -76 8 -28 16 -60 18 -70 6
-26 84 -264 95 -289 5 -11 19 -46 31 -77 24 -64 28 -64 85 -11 17 15 51 44 75
63 25 18 61 48 81 65 20 16 53 44 74 60 21 17 47 39 60 50 12 11 50 42 86 70
35 27 66 52 69 55 3 3 35 29 73 59 37 29 67 56 67 60 0 4 -13 23 -29 42 -90
107 -201 245 -201 250 0 6 43 37 176 129 27 19 61 43 74 52 l23 17 -60 158
c-34 87 -70 181 -82 210 l-20 52 47 21 c261 114 261 114 262 140 0 14 -9 62
-20 107 -11 45 -21 92 -24 105 -7 34 -12 54 -35 148 -11 47 -28 117 -36 155
-9 39 -18 79 -20 90 -3 11 -7 29 -9 40 -2 11 -7 32 -11 48 -4 15 -4 27 0 27 5
0 365 -274 522 -398 12 -9 34 -26 49 -37 43 -32 185 -143 228 -178 22 -18 52
-40 68 -49 15 -10 28 -20 28 -23 0 -8 -40 -22 -81 -29 -30 -5 -66 -14 -134
-32 -35 -9 -50 -12 -60 -13 -33 -3 -38 -19 -18 -52 11 -19 44 -79 74 -134 29
-55 66 -122 81 -150 51 -94 58 -108 56 -110 -2 -1 -32 -12 -68 -24 -36 -12
-72 -25 -80 -28 -8 -3 -22 -7 -32 -9 -9 -2 -39 -14 -67 -26 l-51 -23 47 -51
c27 -28 65 -71 86 -95 22 -24 55 -60 74 -80 l34 -36 -75 -59 c-42 -32 -76 -64
-76 -71 0 -7 24 -23 53 -36 28 -14 100 -48 159 -76 58 -28 108 -51 111 -51 3
0 38 -15 79 -34 110 -51 170 -76 180 -76 5 0 7 17 3 38 -3 20 -8 51 -10 67 -3
17 -7 41 -10 55 -2 13 -7 40 -10 60 -3 20 -8 47 -10 60 -3 14 -7 41 -10 60
-33 263 -38 335 -38 555 0 152 10 372 17 384 2 3 7 35 11 71 4 36 8 67 10 70
2 3 6 26 10 50 3 25 10 61 15 80 5 19 11 46 14 60 18 90 91 317 143 440 42
101 123 262 136 271 5 3 9 10 9 15 0 22 140 239 215 334 118 150 157 194 273
310 121 121 177 171 240 220 25 19 47 38 50 42 6 8 168 130 210 158 12 8 32
22 44 31 35 27 233 148 304 186 37 20 85 45 107 58 42 22 323 145 345 149 3 1
48 16 100 33 107 36 241 72 330 89 20 4 63 13 90 19 3 1 34 5 70 9 36 5 74 10
84 12 122 23 579 22 694 -1 13 -2 51 -7 85 -10 34 -4 64 -8 68 -10 3 -2 32 -9
65 -14 92 -16 117 -21 149 -31 17 -5 41 -11 55 -14 14 -3 57 -14 95 -26 39
-12 85 -26 104 -32 44 -13 207 -74 248 -93 17 -8 34 -15 37 -15 10 0 268 -127
326 -161 30 -18 69 -40 85 -49 49 -26 205 -129 285 -189 292 -216 507 -432
699 -700 81 -112 191 -291 191 -310 0 -5 3 -11 8 -13 7 -3 112 -210 112 -222
0 -3 13 -34 29 -68 29 -66 117 -316 124 -358 3 -14 10 -45 17 -70 12 -44 15
-59 25 -102 2 -13 8 -36 11 -53 4 -16 8 -39 10 -50 1 -11 3 -20 4 -20 1 0 3
-12 5 -26 2 -15 6 -44 10 -65 4 -22 8 -59 11 -84 2 -25 6 -56 9 -70 19 -89 18
-536 -1 -670 -2 -19 -6 -53 -8 -75 -4 -37 -20 -140 -30 -191 -2 -12 -7 -37
-10 -55 -22 -135 -122 -466 -181 -604 -7 -16 -25 -59 -40 -95 -38 -93 -149
-312 -190 -376 -19 -30 -35 -57 -35 -60 0 -4 -80 -123 -151 -224 -33 -47 -132
-170 -184 -229 -59 -68 -271 -277 -320 -316 -27 -22 -63 -52 -80 -68 -84 -77
-375 -271 -540 -360 -81 -43 -295 -148 -310 -151 -5 -1 -28 -10 -50 -20 -40
-18 -241 -95 -260 -100 -5 -2 -17 -6 -25 -9 -25 -9 -115 -37 -136 -42 -10 -2
-50 -13 -89 -25 -38 -11 -79 -22 -90 -24 -11 -3 -64 -14 -119 -25 -116 -25
-136 -28 -190 -36 -183 -25 -260 -29 -481 -30 -235 0 -350 8 -485 32 -19 3
-44 7 -55 9 -95 14 -138 21 -175 31 -14 3 -29 7 -35 9 -143 34 -300 79 -330
95 -12 5 -27 11 -35 13 -8 2 -24 6 -35 10 -11 5 -38 15 -60 23 -22 8 -56 22
-75 30 -19 9 -55 25 -80 35 -529 234 -998 611 -1409 1133 -39 50 -75 95 -80
102 -21 24 -159 220 -203 288 -76 118 -102 160 -103 165 0 3 -8 16 -16 30 -55
87 -93 158 -184 345 -57 115 -124 264 -150 330 -26 66 -51 129 -55 140 -9 21
-16 43 -20 60 -3 12 -29 83 -41 110 -15 35 -70 223 -72 244 -2 25 -17 28 -18
4 -2 -29 8 -164 16 -203 2 -14 7 -47 10 -75 5 -43 12 -92 31 -200 5 -32 14
-77 26 -125 6 -25 12 -54 13 -65 2 -11 18 -74 35 -140 18 -66 37 -138 42 -160
5 -22 13 -49 18 -60 4 -11 36 -108 71 -215 35 -107 69 -206 75 -220 7 -14 29
-68 49 -120 53 -135 188 -426 205 -440 3 -3 14 -23 25 -45 63 -125 210 -338
310 -449 11 -12 42 -47 69 -77 113 -127 328 -337 424 -415 13 -10 33 -27 45
-38 51 -44 179 -137 272 -198 156 -102 242 -148 500 -269 75 -34 382 -141 445
-154 8 -2 50 -13 92 -25 43 -11 85 -23 95 -25 10 -2 41 -9 68 -15 28 -6 61
-13 75 -15 14 -2 48 -9 75 -15 28 -6 64 -13 80 -15 40 -4 103 -14 140 -22 17
-3 46 -7 65 -8 19 -1 64 -6 100 -10 36 -5 79 -9 95 -10 17 -1 73 -6 125 -10
239 -19 562 -19 740 0 36 3 85 9 110 11 25 3 56 7 70 9 14 2 43 7 65 10 43 6
75 12 115 21 14 3 36 7 50 9 21 2 82 17 125 29 6 1 26 6 45 10 39 9 167 45
190 53 8 4 20 7 25 8 6 0 17 4 25 7 8 4 56 20 105 36 50 17 122 44 162 60 39
17 74 28 77 24 3 -3 6 0 6 6 0 7 5 12 12 12 20 0 449 211 468 230 3 3 34 23
70 44 58 35 219 139 245 158 168 125 271 203 293 223 15 13 38 33 52 45 192
162 415 394 511 531 31 45 145 217 184 279 73 115 241 432 313 590 65 144 107
243 148 352 25 68 50 132 54 143 5 11 18 52 30 90 12 39 29 88 36 110 15 44
73 258 78 290 2 11 13 65 24 120 41 202 55 313 66 530 25 463 25 902 2 1086
-13 101 -16 126 -21 159 -10 63 -25 144 -31 170 -3 14 -7 37 -10 51 -3 14 -18
75 -35 135 -35 128 -34 125 -41 144 -3 8 -22 67 -42 130 -21 63 -46 138 -57
165 -10 28 -46 119 -79 203 l-60 154 20 42 c23 51 83 154 200 341 73 117 216
349 250 405 31 52 108 210 114 233 7 31 -7 35 -65 16 -69 -22 -272 -120 -300
-145 -8 -8 -18 -14 -21 -14 -4 0 -45 -22 -93 -50 -48 -27 -88 -50 -91 -50 -2
0 -26 -11 -53 -24 -91 -43 -155 -55 -230 -41 -32 6 -33 8 -28 41 8 50 74 178
183 357 31 50 64 104 73 118 9 15 61 99 116 188 113 181 122 197 186 312 67
120 80 154 66 173 -11 13 -16 13 -52 -4 -22 -11 -46 -19 -52 -20 -7 0 -13 -4
-13 -10 0 -5 -6 -10 -13 -10 -12 0 -177 -97 -187 -110 -3 -3 -27 -21 -55 -40
-27 -19 -52 -37 -55 -41 -3 -3 -27 -24 -55 -44 -27 -21 -52 -41 -55 -44 -3 -4
-57 -49 -120 -101 -63 -52 -120 -99 -127 -105 -30 -25 -41 -33 -83 -61 -93
-63 -142 -80 -184 -64 -21 8 -26 16 -26 46 0 56 78 240 162 379 9 17 29 52 44
80 15 27 37 67 51 87 34 54 110 199 117 224 11 36 -18 35 -75 -3 -30 -20 -169
-152 -310 -294 -141 -141 -266 -260 -278 -264 -19 -6 -35 6 -94 63 -107 105
-151 144 -267 238 -146 118 -397 294 -420 294 -6 0 -13 7 -16 15 -4 8 -11 15
-16 15 -6 0 -34 14 -62 32 -84 52 -451 236 -506 253 -3 1 -14 5 -25 10 -18 7
-91 36 -150 60 -11 4 -24 9 -30 11 -5 2 -63 22 -127 44 -106 36 -269 86 -308
95 -8 1 -35 8 -60 15 -25 7 -52 14 -60 15 -8 2 -53 12 -100 23 -47 11 -101 23
-120 26 -19 3 -46 8 -60 11 -14 3 -42 7 -64 10 -21 3 -41 7 -45 9 -3 2 -33 7
-65 10 -32 4 -62 8 -65 10 -3 2 -35 7 -71 10 -36 4 -83 9 -105 12 -22 3 -65 7
-95 10 -64 6 -618 12 -624 7z"/>
<path d="M10517 10948 c-8 -12 -32 -52 -53 -88 -22 -36 -44 -74 -51 -85 -7
-11 -16 -27 -20 -35 -4 -8 -39 -69 -78 -135 -40 -66 -83 -140 -97 -165 -43
-77 -130 -224 -149 -252 -11 -15 -19 -30 -19 -32 0 -5 -55 -101 -90 -156 -5
-8 -22 -37 -38 -65 -116 -202 -369 -630 -409 -692 -13 -20 -11 -23 34 -57 26
-20 53 -39 58 -44 6 -4 33 -23 60 -42 28 -18 52 -37 55 -41 11 -15 29 7 90
111 34 58 64 107 67 110 2 2 302 5 665 5 l661 1 33 -53 c19 -28 34 -57 34 -63
0 -5 3 -10 8 -10 4 0 20 -25 36 -55 l28 -54 27 17 c14 9 61 41 103 72 42 30
85 60 94 66 16 10 -4 48 -206 384 -124 206 -229 382 -235 392 -18 32 -190 318
-207 346 -10 15 -21 34 -25 42 -3 8 -28 50 -55 93 -26 43 -48 83 -48 88 0 5
-4 9 -10 9 -5 0 -10 4 -10 9 0 8 -196 342 -225 384 -13 18 -14 18 -28 -5z"/>
<path d="M8213 9578 c-5 -10 28 -68 39 -68 4 0 8 -6 8 -12 0 -7 9 -24 20 -38
11 -14 131 -191 266 -395 136 -203 254 -378 263 -387 18 -20 7 -38 134 202 33
63 68 129 77 145 73 131 290 544 290 551 0 11 -1090 12 -1097 2z"/>
<path d="M11787 9564 c-3 -4 7 -30 22 -58 16 -28 50 -91 76 -141 175 -329 251
-471 314 -585 23 -41 46 -87 52 -102 6 -16 16 -28 22 -28 7 0 102 137 212 303
110 166 202 304 205 307 11 10 200 297 200 304 0 8 -1095 8 -1103 0z"/>
<path d="M10330 9081 l0 -81 93 -1 c186 -1 282 2 292 11 8 7 12 95 6 144 -1 5
-11 0 -23 -11 -28 -25 -58 -40 -75 -37 -7 1 -19 2 -25 3 -7 0 -26 12 -42 26
-31 26 -46 31 -46 15 0 -15 -72 -47 -95 -42 -11 2 -35 15 -52 29 l-33 24 0
-80z"/>
<path d="M9940 9037 c0 -16 32 -47 47 -47 6 0 24 -13 40 -30 15 -16 34 -30 41
-30 7 0 23 -12 36 -27 21 -24 30 -27 92 -28 38 0 78 -6 90 -13 36 -19 124 -35
124 -21 0 4 -10 14 -22 20 -42 22 -88 77 -113 133 l-25 56 -155 0 c-123 0
-155 -3 -155 -13z"/>
<path d="M10775 8995 c-24 -56 -72 -113 -113 -134 -12 -7 -20 -16 -17 -21 7
-11 57 -3 105 18 19 8 66 16 104 17 61 2 72 5 92 28 13 15 30 27 38 27 9 0 23
11 32 25 9 14 27 28 39 31 13 3 32 16 43 29 28 33 18 35 -154 35 l-144 0 -25
-55z"/>
<path d="M10498 8793 c-26 -52 -27 -58 -12 -74 11 -12 17 -39 18 -80 1 -68 2
-67 -75 -94 -73 -26 -140 -103 -154 -176 -11 -58 -13 -59 -80 -59 -43 0 -68 5
-79 15 -8 8 -18 15 -22 15 -14 0 -114 -51 -114 -58 0 -4 26 -19 57 -33 50 -23
60 -25 78 -13 16 10 92 19 141 15 19 -2 25 -47 9 -77 -13 -25 -12 -30 6 -55
25 -36 78 -89 88 -89 16 0 43 40 48 72 10 68 6 85 -24 100 -25 12 -41 47 -22
49 50 3 131 0 136 -5 4 -4 7 -46 8 -93 1 -69 -3 -90 -16 -103 -9 -8 -32 -29
-51 -47 -48 -44 -71 -95 -70 -160 0 -59 28 -116 87 -182 18 -20 37 -45 42 -56
16 -32 10 -187 -8 -213 -15 -21 -14 -26 14 -84 l31 -61 30 61 c26 54 28 64 17
85 -12 22 -10 27 13 50 38 39 38 77 -1 152 -25 48 -26 57 -28 231 l-1 180 50
30 c73 43 150 122 170 174 l17 45 68 -5 c37 -3 75 -11 83 -18 15 -12 45 -3
117 37 23 13 22 14 -40 45 -61 30 -65 30 -81 14 -14 -14 -35 -18 -87 -18 l-69
0 -7 38 c-9 47 -50 123 -85 157 -15 14 -52 36 -82 48 l-55 23 2 62 c2 39 8 69
18 80 14 15 13 22 -12 71 -14 30 -31 56 -36 58 -6 1 -22 -23 -37 -54z"/>
<path d="M9186 8702 c-5 -10 -46 -84 -91 -167 -21 -38 -41 -74 -45 -80 -4 -5
-24 -41 -45 -80 -41 -77 -84 -156 -123 -225 -14 -25 -36 -64 -49 -88 -47 -87
-86 -158 -103 -187 -9 -16 -33 -59 -52 -95 -20 -36 -68 -123 -107 -194 -39
-70 -71 -130 -71 -132 0 -3 -11 -21 -23 -42 -13 -20 -42 -71 -64 -112 -103
-191 -117 -215 -127 -222 -6 -4 -8 -8 -4 -8 4 0 -10 -30 -32 -67 -21 -37 -37
-70 -34 -72 6 -7 2034 -7 2043 -1 3 3 7 23 7 45 4 139 6 232 5 243 -1 10 -32
13 -138 11 l-138 -1 -84 138 c-46 77 -92 155 -103 174 -31 54 -247 419 -278
470 -15 25 -67 112 -115 194 l-88 149 48 91 c27 50 52 93 56 96 4 3 10 16 13
30 6 24 0 28 -106 75 -143 64 -147 65 -152 57z"/>
<path d="M11825 8684 c-16 -7 -69 -32 -117 -54 -49 -22 -88 -44 -88 -49 0 -10
31 -72 40 -81 3 -3 22 -37 42 -76 l37 -70 -129 -220 c-71 -120 -133 -223 -138
-229 -4 -5 -11 -17 -15 -25 -4 -8 -17 -32 -29 -52 -13 -20 -44 -72 -69 -115
-25 -43 -81 -138 -125 -211 -116 -194 -133 -225 -146 -249 -10 -21 -18 -23
-152 -25 l-141 -3 3 -144 c1 -80 6 -147 11 -150 12 -8 2029 -7 2036 1 6 5 -9
34 -79 161 -99 179 -344 622 -376 682 -15 28 -48 88 -74 134 -25 46 -46 86
-46 88 0 3 -8 17 -18 31 -11 15 -41 68 -67 117 -27 50 -78 144 -115 210 -37
66 -86 156 -109 199 -23 44 -45 84 -50 90 -5 6 -9 13 -10 16 -1 40 -27 48 -76
24z"/>
<path d="M10009 6660 c-9 -6 10 -44 109 -220 13 -25 38 -70 54 -100 59 -107
91 -165 108 -195 9 -16 34 -61 55 -100 21 -38 56 -101 77 -140 21 -38 62 -114
91 -167 28 -54 55 -98 58 -98 4 0 33 51 64 113 32 61 91 175 130 252 40 77
112 219 161 315 49 96 91 177 94 180 12 12 79 155 74 159 -7 7 -1063 8 -1075
1z"/>
</g>
</svg>
